# xmcd CD database file
#
# Track frame offsets:
#	150
#	12710
#	29093
#	41973
#	56436
#	68101
#	82062
#	94411
#	108982
#	123555
#	137212
#	150594
#	165313
#	178508
#	192313
#	207380
#	222564
#	236782
#	250826
#	264854
#	277700
#	297534
#	308941
#	323017
#
# Disc length: 4486 seconds
#
# Revision: 1
# Processed by: cddbd v1.5.2PL0 Copyright (c) Steve Scherf et al.
# Submitted via: CDex 1.81
#
DISCID=6e118418
DTITLE=Various Artist - JazzPiano History - [CD 07) New York
DYEAR=1900
DGENRE=Jazz
TTITLE0=Frank Melrose - Jelly Roll Stomp
TTITLE1=Joe Sullivan - I'm Gonna Stomp Mr. Henry Lee
TTITLE2=Joe Sullivan - China Boy
TTITLE3=Joe Sullivan - Gin Mill Blues
TTITLE4=Joe Sullivan - Little Rock Gateway
TTITLE5=Joe Sullivan - Just Strolling
TTITLE6=Joe Sullivan - Minor Mood
TTITLE7=Joe Sullivan - Summertime
TTITLE8=Jess Stacy - Flashes
TTITLE9=Jess Stacy - Barrelhouse
TTITLE10=Jess Stacy - The World Is Waiting For The Sunrise
TTITLE11=Jess Stacy and Eddie Condon - Carneige
TTITLE12=Dave Bowman and Bud Freeman - 47th and State
TTITLE13=Art Hodes - A Selection From The Gutter
TTITLE14=Art Hodes - Bed Rock Blues
TTITLE15=Art Hodes Trio - Eccentric
TTITLE16=George Zack and Max Kaminsky - Black and Blue
TTITLE17=George Zack - Lazy River
TTITLE18=Tram, Bix and Lang - For No Reason At All In C
TTITLE19=Bix Beiderbecke - In A Mist (Bixology)
TTITLE20=Ralph Sutton I - Candlelights
TTITLE21=Rube Bloom - Soliloquy
TTITLE22=Arthur Schutt and Red Nichols - Delirium
TTITLE23=Arthur Schutt - Lover Come Back To Me
EXTD=
EXTT0=
EXTT1=
EXTT2=
EXTT3=
EXTT4=
EXTT5=
EXTT6=
EXTT7=
EXTT8=
EXTT9=
EXTT10=
EXTT11=
EXTT12=
EXTT13=
EXTT14=
EXTT15=
EXTT16=
EXTT17=
EXTT18=
EXTT19=
EXTT20=
EXTT21=
EXTT22=
EXTT23=
PLAYORDER=
